<svg width="235" height="225" viewBox="0 0 235 225" fill="none" xmlns="http://www.w3.org/2000/svg">
<path d="M224.11 220H10.8902C8.00298 219.996 5.23491 218.592 3.1933 216.097C1.15169 213.601 0.00327981 210.217 0 206.688V13.3121C0.00327981 9.78274 1.15169 6.39909 3.1933 3.90345C5.23491 1.40782 8.00298 0.0040092 10.8902 0H224.11C226.997 0.0040092 229.765 1.40782 231.807 3.90345C233.848 6.39909 234.997 9.78274 235 13.3121V206.688C234.997 210.217 233.848 213.601 231.807 216.097C229.765 218.592 226.997 219.996 224.11 220Z" fill="white"/>
<path d="M59.8357 20.6287C59.5757 20.3556 59.2458 20.1606 58.8826 20.0655C58.5194 19.9705 58.1372 19.979 57.7785 20.0901C57.4198 20.2013 57.0987 20.4107 56.8509 20.6951C56.6031 20.9795 56.4383 21.3278 56.3748 21.7011L54.6826 32.9817C54.656 33.1479 54.5973 33.3073 54.5097 33.4506C54.4173 33.5909 54.2974 33.7107 54.1573 33.8023L42.9082 41.2088C42.5378 41.4396 42.2564 41.791 42.1106 42.205C41.9647 42.6191 41.9631 43.0709 42.106 43.486L42.1111 43.5012C42.2479 43.9188 42.5183 44.2787 42.8799 44.5243C43.2414 44.7698 43.6735 44.8872 44.1082 44.8578L50.7469 44.5668C50.9652 44.5581 51.1819 44.609 51.374 44.714C51.5662 44.819 51.7268 44.9743 51.839 45.1636C51.9221 45.3002 51.9757 45.453 51.9963 45.6119C52.017 45.7709 52.0043 45.9324 51.959 46.0861L45.9349 67.4738C45.8468 67.7835 45.8362 68.1104 45.9038 68.4253C45.9714 68.7401 46.1152 69.0332 46.3224 69.2783C46.5316 69.5257 46.7959 69.7196 47.0937 69.8439C47.3915 69.9682 47.7143 70.0194 48.0355 69.9934L98.149 65.9001C98.6019 65.8645 99.0299 65.6767 99.3647 65.3666C99.557 65.1895 99.7122 64.9753 99.8212 64.7366C99.9301 64.498 99.9906 64.2397 99.999 63.977C100.007 63.7143 99.9636 63.4526 99.8701 63.2073C99.7766 62.9621 99.6354 62.7382 99.4548 62.5489L98.9468 62.0109L59.8357 20.6287L59.8357 20.6287ZM57.1689 21.8167C57.2101 21.5493 57.3402 21.304 57.5379 21.1212C57.7738 20.9036 58.0846 20.7875 58.404 20.7978C58.7234 20.808 59.0263 20.9437 59.2481 21.1759L98.3465 62.5456L98.8671 63.096C99.0502 63.2903 99.1627 63.5414 99.1865 63.8085C99.1989 63.9668 99.1803 64.126 99.1316 64.277C99.083 64.428 99.0052 64.5678 98.9029 64.6884C98.8006 64.8089 98.6756 64.9079 98.5353 64.9796C98.395 65.0513 98.242 65.0943 98.0852 65.1062L47.9716 69.1995C47.8303 69.2108 47.6881 69.1974 47.5514 69.1598C47.3999 69.1198 47.2578 69.0498 47.1333 68.9539C47.0088 68.858 46.9045 68.738 46.8263 68.6011C46.7481 68.4641 46.6977 68.3128 46.6779 68.156C46.6582 67.9992 46.6695 67.84 46.7112 67.6876L52.7353 46.3C52.7974 46.0893 52.8223 45.8693 52.8089 45.6499L97.189 64.0959C97.338 64.1597 97.5024 64.1773 97.6614 64.1467C97.8203 64.116 97.9667 64.0384 98.0819 63.9236C98.1561 63.8498 98.2149 63.7616 98.2547 63.6644C98.2946 63.5672 98.3148 63.4629 98.3141 63.3577C98.3134 63.2525 98.2918 63.1485 98.2506 63.0519C98.2094 62.9553 98.1494 62.8679 98.0742 62.7951C98.0419 62.7627 98.0065 62.7336 97.9686 62.7082L55.3662 33.5245C55.419 33.3868 55.4561 33.2435 55.4767 33.0973L57.1689 21.8166L57.1689 21.8167Z" fill="#E6E6E6"/>
<path d="M59.8357 20.6287C59.5757 20.3556 59.2458 20.1606 58.8826 20.0655C58.5194 19.9705 58.1372 19.979 57.7785 20.0901C57.4198 20.2013 57.0987 20.4107 56.8509 20.6951C56.6031 20.9795 56.4383 21.3278 56.3748 21.7011L54.6826 32.9817C54.656 33.1479 54.5973 33.3073 54.5097 33.4506C54.4173 33.5909 54.2974 33.7107 54.1573 33.8023L42.9082 41.2088C42.5378 41.4396 42.2564 41.791 42.1106 42.205C41.9647 42.6191 41.9631 43.0709 42.106 43.486L42.1111 43.5012C42.2479 43.9188 42.5183 44.2787 42.8799 44.5243C43.2414 44.7698 43.6735 44.8872 44.1082 44.8578L50.7469 44.5668C50.9652 44.5581 51.1819 44.609 51.374 44.714C51.5662 44.819 51.7268 44.9743 51.839 45.1636C51.9221 45.3002 51.9757 45.453 51.9963 45.6119C52.017 45.7709 52.0043 45.9324 51.959 46.0861L45.9349 67.4738C45.8468 67.7835 45.8362 68.1104 45.9038 68.4253C45.9714 68.7401 46.1152 69.0332 46.3224 69.2783C46.5316 69.5257 46.7959 69.7196 47.0937 69.8439C47.3915 69.9682 47.7143 70.0194 48.0355 69.9934L98.149 65.9001C98.6019 65.8645 99.0299 65.6767 99.3647 65.3666C99.557 65.1895 99.7122 64.9753 99.8212 64.7366C99.9301 64.498 99.9906 64.2397 99.999 63.977C100.007 63.7143 99.9636 63.4526 99.8701 63.2073C99.7766 62.9621 99.6354 62.7382 99.4548 62.5489L98.9468 62.0109L59.8357 20.6287L59.8357 20.6287ZM57.1689 21.8167C57.2101 21.5493 57.3402 21.304 57.5379 21.1212C57.7738 20.9036 58.0846 20.7875 58.404 20.7978C58.7234 20.808 59.0263 20.9437 59.2481 21.1759L98.3465 62.5456L98.8671 63.096C99.0502 63.2903 99.1627 63.5414 99.1865 63.8085C99.1989 63.9668 99.1803 64.126 99.1316 64.277C99.083 64.428 99.0052 64.5678 98.9029 64.6884C98.8006 64.8089 98.6756 64.9079 98.5353 64.9796C98.395 65.0513 98.242 65.0943 98.0852 65.1062L47.9716 69.1995C47.8303 69.2108 47.6881 69.1973 47.5514 69.1597C47.3999 69.1198 47.2578 69.0498 47.1333 68.9539C47.0088 68.858 46.9045 68.738 46.8263 68.6011C46.7481 68.4641 46.6977 68.3128 46.6779 68.156C46.6582 67.9992 46.6695 67.84 46.7112 67.6876L52.7353 46.3C52.7974 46.0893 52.8223 45.8692 52.8089 45.6498C52.7916 45.334 52.6971 45.0275 52.5337 44.7576C52.5121 44.7186 52.4866 44.6808 52.4611 44.6429L52.4599 44.6392C52.2646 44.3577 52.002 44.1305 51.6965 43.9788C51.391 43.8271 51.0524 43.7558 50.7123 43.7716L44.0699 44.0638C43.8084 44.0823 43.5484 44.0116 43.3315 43.8632C43.1146 43.7147 42.9532 43.4971 42.8734 43.2451L42.8708 43.2375C42.7832 42.9888 42.7832 42.7171 42.871 42.4684C42.9588 42.2197 43.1289 42.0092 43.3526 41.8725L54.6017 34.4662C54.7212 34.3894 54.8317 34.2992 54.9312 34.1976L54.935 34.1963C55.0304 34.0995 55.1153 33.9926 55.1882 33.8775C55.2599 33.7667 55.3196 33.6483 55.3662 33.5245C55.4191 33.3868 55.4561 33.2435 55.4767 33.0972L57.1689 21.8166V21.8167Z" fill="#CCCCCC"/>
<path d="M55.3204 33.1118L97.6568 62.5344C97.6945 62.56 97.7296 62.5894 97.7618 62.622C97.8763 62.7346 97.9542 62.8805 97.9852 63.0399C98.0161 63.1993 97.9984 63.3647 97.9346 63.5135C97.8478 63.7107 97.6889 63.8651 97.4921 63.9436C97.2953 64.0222 97.0763 64.0185 96.8821 63.9335L52.7791 45.3364L52 45.0088L52.3108 44.2692L52.4322 44.3175L52.4335 44.3212L97.1916 63.1902L54.8919 33.789L54.8881 33.7903L54.7059 33.6609L55.161 33L55.3204 33.1118Z" fill="#CCCCCC"/>
<path d="M45.0771 152.692L81.0483 153.282H102C102.928 153.281 103.818 152.912 104.474 152.256C105.13 151.6 105.499 150.71 105.5 149.782V148.559L87.4585 129.159C87.1382 128.815 86.7518 128.539 86.3223 128.347C85.8929 128.155 85.4292 128.052 84.959 128.044C84.4888 128.035 84.0216 128.122 83.5855 128.298C83.1494 128.474 82.7532 128.736 82.4207 129.068L64.6768 146.812C64.2079 147.28 63.5725 147.543 62.91 147.544C62.2475 147.544 61.6119 147.281 61.1426 146.814L58.5164 144.192C57.8593 143.537 56.9692 143.169 56.0414 143.169C55.1135 143.17 54.2238 143.538 53.5674 144.194L45.0771 152.692Z" fill="#FFCC63"/>
<path d="M224.11 225H10.8902C8.00298 224.996 5.23491 223.56 3.1933 221.008C1.15169 218.455 0.00327981 214.995 0 211.385V13.6146C0.00327981 10.0051 1.15169 6.54452 3.1933 3.99217C5.23491 1.43981 8.00298 0.00410032 10.8902 0H224.11C226.997 0.00410032 229.765 1.43981 231.807 3.99217C233.848 6.54452 234.997 10.0051 235 13.6146V211.385C234.997 214.995 233.848 218.455 231.807 221.008C229.765 223.56 226.997 224.996 224.11 225ZM10.8902 4.29936C8.91475 4.30219 7.02081 5.28451 5.62392 7.03086C4.22704 8.7772 3.44128 11.1449 3.43902 13.6146V211.385C3.44128 213.855 4.22707 216.223 5.62396 217.969C7.02084 219.715 8.91475 220.698 10.8902 220.701H224.11C226.085 220.698 227.979 219.716 229.376 217.969C230.773 216.223 231.559 213.855 231.561 211.385V13.6146C231.559 11.1449 230.773 8.77716 229.376 7.03081C227.979 5.28446 226.085 4.30215 224.11 4.29936H10.8902Z" fill="#3F3D56"/>
<path d="M189 88.782H45C44.2044 88.782 43.4413 88.466 42.8787 87.9034C42.3161 87.3407 42 86.5777 42 85.782C42 84.9864 42.3161 84.2233 42.8787 83.6607C43.4413 83.0981 44.2044 82.782 45 82.782H189C189.796 82.782 190.559 83.0981 191.121 83.6607C191.684 84.2233 192 84.9864 192 85.782C192 86.5777 191.684 87.3407 191.121 87.9034C190.559 88.466 189.796 88.782 189 88.782Z" fill="#3F3D56"/>
<path d="M189.5 105.282H45.5C44.7044 105.282 43.9413 104.966 43.3787 104.403C42.8161 103.841 42.5 103.078 42.5 102.282C42.5 101.486 42.8161 100.723 43.3787 100.161C43.9413 99.5981 44.7044 99.2821 45.5 99.2821H189.5C190.296 99.2821 191.059 99.5981 191.621 100.161C192.184 100.723 192.5 101.486 192.5 102.282C192.5 103.078 192.184 103.841 191.621 104.403C191.059 104.966 190.296 105.282 189.5 105.282Z" fill="#3F3D56"/>
<path d="M190 121.782H121C120.204 121.782 119.441 121.466 118.879 120.903C118.316 120.341 118 119.578 118 118.782C118 117.986 118.316 117.223 118.879 116.661C119.441 116.098 120.204 115.782 121 115.782H190C190.796 115.782 191.559 116.098 192.121 116.661C192.684 117.223 193 117.986 193 118.782C193 119.578 192.684 120.341 192.121 120.903C191.559 121.466 190.796 121.782 190 121.782Z" fill="#3F3D56"/>
<path d="M190.5 138.282H121.5C120.704 138.282 119.941 137.966 119.379 137.403C118.816 136.841 118.5 136.078 118.5 135.282C118.5 134.486 118.816 133.723 119.379 133.161C119.941 132.598 120.704 132.282 121.5 132.282H190.5C191.296 132.282 192.059 132.598 192.621 133.161C193.184 133.723 193.5 134.486 193.5 135.282C193.5 136.078 193.184 136.841 192.621 137.403C192.059 137.966 191.296 138.282 190.5 138.282Z" fill="#3F3D56"/>
<path d="M191 154.782H122C121.204 154.782 120.441 154.466 119.879 153.903C119.316 153.341 119 152.578 119 151.782C119 150.986 119.316 150.223 119.879 149.661C120.441 149.098 121.204 148.782 122 148.782H191C191.796 148.782 192.559 149.098 193.121 149.661C193.684 150.223 194 150.986 194 151.782C194 152.578 193.684 153.341 193.121 153.903C192.559 154.466 191.796 154.782 191 154.782Z" fill="#3F3D56"/>
<path d="M191.5 171.282H47.5C46.7044 171.282 45.9413 170.966 45.3787 170.403C44.8161 169.841 44.5 169.078 44.5 168.282C44.5 167.486 44.8161 166.723 45.3787 166.161C45.9413 165.598 46.7044 165.282 47.5 165.282H191.5C192.296 165.282 193.059 165.598 193.621 166.161C194.184 166.723 194.5 167.486 194.5 168.282C194.5 169.078 194.184 169.841 193.621 170.403C193.059 170.966 192.296 171.282 191.5 171.282Z" fill="#3F3D56"/>
<path d="M192 187.782H48C47.2044 187.782 46.4413 187.466 45.8787 186.903C45.3161 186.341 45 185.578 45 184.782C45 183.986 45.3161 183.223 45.8787 182.661C46.4413 182.098 47.2044 181.782 48 181.782H192C192.796 181.782 193.559 182.098 194.121 182.661C194.684 183.223 195 183.986 195 184.782C195 185.578 194.684 186.341 194.121 186.903C193.559 187.466 192.796 187.782 192 187.782Z" fill="#3F3D56"/>
<path d="M192.5 204.282H48.5C47.7044 204.282 46.9413 203.966 46.3787 203.403C45.8161 202.841 45.5 202.078 45.5 201.282C45.5 200.486 45.8161 199.723 46.3787 199.161C46.9413 198.598 47.7044 198.282 48.5 198.282H192.5C193.296 198.282 194.059 198.598 194.621 199.161C195.184 199.723 195.5 200.486 195.5 201.282C195.5 202.078 195.184 202.841 194.621 203.403C194.059 203.966 193.296 204.282 192.5 204.282Z" fill="#3F3D56"/>
<path d="M105 155.782H49C48.1664 155.784 47.346 155.574 46.6159 155.172H46.6021L46.3479 155.019C45.6283 154.571 45.035 153.947 44.6242 153.205C44.2133 152.464 43.9985 151.63 44 150.782V120.782C44.0015 119.456 44.5288 118.186 45.4662 117.248C46.4035 116.311 47.6744 115.784 49 115.782H105C106.326 115.784 107.597 116.311 108.534 117.248C109.471 118.186 109.998 119.456 110 120.782V150.782C109.998 152.108 109.471 153.379 108.534 154.316C107.596 155.253 106.326 155.781 105 155.782ZM47.2855 153.242L47.4291 153.33C47.8987 153.628 48.4439 153.785 49 153.782H105C105.795 153.781 106.558 153.465 107.12 152.902C107.683 152.34 107.999 151.577 108 150.782V120.782C107.999 119.987 107.683 119.224 107.12 118.662C106.558 118.099 105.795 117.783 105 117.782H49C48.2046 117.783 47.4421 118.099 46.8797 118.662C46.3173 119.224 46.0009 119.987 46 120.782V150.782C45.9993 151.265 46.1159 151.742 46.3399 152.17C46.5638 152.599 46.8883 152.966 47.2855 153.242Z" fill="#3F3D56"/>
<path d="M138.964 65.752C137.652 67.032 136.18 67.672 134.548 67.672C132.98 67.672 131.716 67.224 130.756 66.328C129.796 65.432 128.852 64.008 127.924 62.056L124.276 54.328C123.988 53.688 123.62 53.224 123.172 52.936C122.756 52.648 122.036 52.312 121.012 51.928C120.404 51.704 120.1 51.336 120.1 50.824C120.1 50.504 120.164 50.232 120.292 50.008C120.42 49.784 120.612 49.672 120.868 49.672C120.996 49.672 121.252 49.736 121.636 49.864C122.052 49.96 122.58 50.008 123.22 50.008C125.62 50.008 127.492 49.336 128.836 47.992C130.18 46.616 130.852 44.792 130.852 42.52C130.852 40.184 130.132 38.28 128.692 36.808C127.284 35.304 125.284 34.552 122.692 34.552C120.26 34.552 119.044 35.288 119.044 36.76V57.352C119.044 59.272 119.204 60.824 119.524 62.008C119.844 63.16 120.404 64.28 121.204 65.368L121.828 66.232L121.204 67H110.692L110.116 65.368L111.22 65.08C112.436 64.76 113.252 64.296 113.668 63.688C114.084 63.08 114.292 62.056 114.292 60.616V36.904C114.292 36.488 114.212 36.2 114.052 36.04C113.892 35.848 113.62 35.752 113.236 35.752H110.452L109.876 33.976C111.252 33.432 113.06 32.952 115.3 32.536C117.572 32.088 119.748 31.864 121.828 31.864C126.564 31.864 130.084 32.84 132.388 34.792C134.692 36.744 135.844 39.272 135.844 42.376C135.844 44.744 135.188 46.808 133.876 48.568C132.564 50.328 130.628 51.512 128.068 52.12C128.772 52.6 129.412 53.384 129.988 54.472L134.452 63.544C134.964 64.536 135.572 65.032 136.276 65.032C136.884 65.032 137.508 64.808 138.148 64.36L138.964 65.752Z" fill="#A0616A"/>
<path d="M142.019 55.096C142.019 52.536 142.483 50.312 143.411 48.424C144.371 46.536 145.731 45.08 147.491 44.056C149.283 43.032 151.363 42.52 153.731 42.52C156.099 42.52 158.163 43.032 159.923 44.056C161.683 45.08 163.043 46.536 164.003 48.424C164.963 50.312 165.443 52.536 165.443 55.096C165.443 57.624 164.963 59.848 164.003 61.768C163.043 63.656 161.683 65.112 159.923 66.136C158.163 67.16 156.099 67.672 153.731 67.672C151.363 67.672 149.283 67.16 147.491 66.136C145.731 65.112 144.371 63.656 143.411 61.768C142.483 59.848 142.019 57.624 142.019 55.096ZM160.403 55.24C160.403 53.736 160.195 52.2 159.779 50.632C159.363 49.064 158.659 47.736 157.667 46.648C156.707 45.56 155.443 45.016 153.875 45.016C152.531 45.016 151.331 45.448 150.275 46.312C149.251 47.144 148.451 48.328 147.875 49.864C147.299 51.4 147.011 53.16 147.011 55.144C147.011 58.184 147.603 60.6 148.787 62.392C149.971 64.184 151.571 65.08 153.587 65.08C154.899 65.08 156.067 64.68 157.091 63.88C158.147 63.048 158.963 61.896 159.539 60.424C160.115 58.92 160.403 57.192 160.403 55.24Z" fill="#FFCC63"/>
<path d="M178.457 60.616C178.457 61.64 178.537 62.408 178.697 62.92C178.857 63.432 179.145 63.784 179.561 63.976C180.009 64.168 180.665 64.264 181.529 64.264H185.705C186.857 64.264 187.753 64.152 188.393 63.928C189.033 63.672 189.529 63.256 189.881 62.68C190.265 62.072 190.617 61.176 190.937 59.992L191.225 58.888L192.857 59.464V67.672L191.897 68.2L191.513 67.672C191.161 67.224 190.489 67 189.497 67H170.297L169.769 65.464L170.777 65.176C171.961 64.824 172.745 64.376 173.129 63.832C173.513 63.288 173.705 62.328 173.705 60.952V38.92C173.705 37.448 173.497 36.424 173.081 35.848C172.665 35.272 171.849 34.808 170.633 34.456L169.529 34.168L170.105 32.536H180.617L181.241 33.304L180.617 34.168C179.817 35.224 179.257 36.344 178.937 37.528C178.617 38.712 178.457 40.264 178.457 42.184V60.616Z" fill="#575A89"/>
</svg>
